<svg width="800" height="800" viewBox="0 0 800 800" fill="none" xmlns="http://www.w3.org/2000/svg">
  <rect width="800" height="800" fill="#FCFAF5"/>
  <defs>
    <path id="topArc" d="M 130 400 A 270 270 0 0 1 670 400" />
    <path id="bottomArc" d="M 665 400 A 265 265 0 0 1 135 400" />
  </defs>

  <circle cx="400" cy="400" r="278" fill="#FFFFFF" stroke="#D7261E" stroke-width="56"/>
  <circle cx="400" cy="400" r="206" fill="#FFFFFF"/>

  <text fill="#FFFFFF" font-family="Arial, Helvetica, sans-serif" font-size="34" font-weight="700" letter-spacing="4">
    <textPath href="#topArc" startOffset="50%" text-anchor="middle">MARCH 19 PLATFORM</textPath>
  </text>

  <text fill="#FFFFFF" font-family="Arial, Helvetica, sans-serif" font-size="24" font-weight="700" letter-spacing="2.4">
    <textPath href="#bottomArc" startOffset="50%" text-anchor="middle">UNITED FOR DEMOCRACY IN TÜRKIYE</textPath>
  </text>

  <g transform="translate(400 420)" stroke="#12141C" stroke-linecap="round" stroke-linejoin="round">
    <path d="M0 -185V-10" stroke-width="12"/>
    <path d="M-128 -64L0 -76L128 -64" stroke-width="10"/>
    <path d="M0 -78C-16 -110 -34 -139 -57 -165" stroke-width="9"/>
    <path d="M0 -78C16 -110 34 -139 57 -165" stroke-width="9"/>
    <path d="M0 -103C-24 -122 -46 -143 -60 -175" stroke-width="8"/>
    <path d="M0 -103C24 -122 46 -143 60 -175" stroke-width="8"/>
    <path d="M0 -122C0 -145 0 -166 0 -188" stroke-width="8"/>

    <path d="M-150 -58L-191 4H-109L-150 -58Z" fill="#12141C" stroke="none"/>
    <path d="M150 -58L109 4H191L150 -58Z" fill="#12141C" stroke="none"/>

    <path d="M0 -6V128" stroke-width="12"/>
    <path d="M0 116C-22 131 -43 149 -56 171" stroke-width="7"/>
    <path d="M0 116C22 131 43 149 56 171" stroke-width="7"/>
    <path d="M0 136C-10 155 -17 173 -20 195" stroke-width="7"/>
    <path d="M0 136C10 155 17 173 20 195" stroke-width="7"/>
    <path d="M-33 132C-50 148 -64 162 -74 182" stroke-width="7"/>
    <path d="M33 132C50 148 64 162 74 182" stroke-width="7"/>
    <path d="M-59 140C-78 153 -94 170 -109 190" stroke-width="7"/>
    <path d="M59 140C78 153 94 170 109 190" stroke-width="7"/>
  </g>
</svg>
