<svg width="1200" height="675" viewBox="0 0 1200 675" fill="none" xmlns="http://www.w3.org/2000/svg">
  <rect width="1200" height="675" rx="40" fill="#E9DED0"/>
  <rect x="64" y="64" width="1072" height="547" rx="28" fill="#FFF9F1" stroke="#D4C3AF" stroke-width="2"/>
  <rect x="112" y="124" width="976" height="68" rx="20" fill="#8C1D18"/>
  <rect x="112" y="224" width="412" height="275" rx="24" fill="#EAD5CF"/>
  <rect x="560" y="232" width="356" height="24" rx="12" fill="#2F2923"/>
  <rect x="560" y="278" width="452" height="18" rx="9" fill="#6E6155"/>
  <rect x="560" y="316" width="420" height="18" rx="9" fill="#6E6155"/>
  <rect x="560" y="354" width="392" height="18" rx="9" fill="#6E6155"/>
  <rect x="560" y="412" width="174" height="16" rx="8" fill="#B0382E"/>
  <rect x="560" y="450" width="302" height="14" rx="7" fill="#A59686"/>
  <rect x="560" y="482" width="338" height="14" rx="7" fill="#A59686"/>
  <path d="M248 245H391V378C391 417.212 359.212 449 320 449C280.788 449 249 417.212 249 378L248 245Z" fill="#8C1D18"/>
  <rect x="228" y="466" width="184" height="18" rx="9" fill="#8C1D18" fill-opacity="0.18"/>
</svg>
